<svg width="24" height="24" viewBox="0 0 24 24" fill="none" xmlns="http://www.w3.org/2000/svg">
<path d="M12.4025 15.15C12.3208 15.15 12.2537 15.1238 12.2012 15.0713C12.1487 15.0188 12.1225 14.9575 12.1225 14.8875V9.62L12.2187 9.7075L11.055 10.4863C11.0083 10.5213 10.9587 10.5388 10.9062 10.5388C10.8362 10.5388 10.7721 10.5096 10.7137 10.4513C10.6612 10.3929 10.635 10.3288 10.635 10.2588C10.635 10.1654 10.6816 10.0925 10.775 10.04L12.2362 9.06875C12.2712 9.04542 12.3062 9.03084 12.3412 9.025C12.3821 9.01917 12.4171 9.01917 12.4462 9.025C12.5221 9.03084 12.5804 9.06 12.6212 9.1125C12.6621 9.15917 12.6825 9.21751 12.6825 9.28751V14.8875C12.6825 14.9575 12.6562 15.0188 12.6037 15.0713C12.5512 15.1238 12.4841 15.15 12.4025 15.15Z" fill="#B0E4DD"/>
<path d="M19 12C19 15.866 15.866 19 12 19C8.13401 19 5 15.866 5 12C5 8.13401 8.13401 5 12 5C15.866 5 19 8.13401 19 12ZM5.7 12C5.7 15.4794 8.52061 18.3 12 18.3C15.4794 18.3 18.3 15.4794 18.3 12C18.3 8.52061 15.4794 5.7 12 5.7C8.52061 5.7 5.7 8.52061 5.7 12Z" fill="#B0E4DD"/>
</svg>
