<svg width="24" height="24" viewBox="0 0 24 24" fill="none" xmlns="http://www.w3.org/2000/svg">
<path d="M16.7917 13.6C17.6774 13.6 18.4008 14.3164 18.4425 15.2171L18.4444 15.2995V15.6C18.4444 17.1022 17.6893 18.2268 16.531 18.9521C15.392 19.6653 13.861 20 12.2222 20C10.5835 20 9.05243 19.6653 7.91341 18.9521C6.79019 18.2487 6.04613 17.17 6.00207 15.7355L6 15.6V15.2996C6 14.3881 6.69726 13.6449 7.57268 13.602L7.65274 13.6H16.7917ZM12.2222 4C14.37 4 16.1111 5.79086 16.1111 8C16.1111 10.2091 14.37 12 12.2222 12C10.0745 12 8.33333 10.2091 8.33333 8C8.33333 5.79086 10.0745 4 12.2222 4Z" fill="#B0E4DD"/>
</svg>
