<svg width="24" height="24" viewBox="0 0 24 24" fill="none" xmlns="http://www.w3.org/2000/svg">
<path d="M14.4034 7.9012C14.5112 7.70253 14.7567 7.62176 14.9534 7.73318C15.9306 8.28685 16.712 9.10443 17.1924 10.0832C17.7301 11.1786 17.8595 12.4122 17.5597 13.5851C17.2599 14.758 16.5483 15.802 15.5398 16.5488C14.5312 17.2955 13.2843 17.7016 12 17.7016C10.7157 17.7016 9.46882 17.2955 8.46024 16.5488C7.45167 15.802 6.74015 14.758 6.44033 13.5851C6.14052 12.4122 6.26988 11.1786 6.80756 10.0832C7.28798 9.10442 8.06938 8.28685 9.04662 7.73318C9.24328 7.62176 9.48883 7.70253 9.59661 7.9012V7.9012C9.7124 8.11465 9.62465 8.38011 9.41601 8.50437C8.63415 8.97005 8.0085 9.6391 7.61824 10.4342C7.1645 11.3586 7.05534 12.3996 7.30834 13.3894C7.56134 14.3792 8.16178 15.2601 9.01289 15.8903C9.864 16.5205 10.9162 16.8632 12 16.8632C13.0838 16.8632 14.136 16.5205 14.9871 15.8903C15.8382 15.2601 16.4387 14.3792 16.6917 13.3894C16.9447 12.3996 16.8355 11.3586 16.3818 10.4342C15.9915 9.6391 15.3659 8.97005 14.584 8.50437C14.3754 8.38011 14.2876 8.11465 14.4034 7.9012V7.9012Z" fill="#B0E4DD"/>
<rect x="11.5059" y="6.29834" width="0.988235" height="6.03315" rx="0.494118" fill="#B0E4DD"/>
</svg>
